<svg width="151" height="35" viewBox="0 0 151 35" fill="none" xmlns="http://www.w3.org/2000/svg">
<g filter="url(#filter0_d)">
<path fill-rule="evenodd" clip-rule="evenodd" d="M9.52323 17.7451C9.52323 18.0882 9.58115 18.4915 9.71447 18.9486C9.84343 19.4089 10.1068 19.845 10.4795 20.2557C10.8609 20.6706 11.3996 21.0211 12.1209 21.3061C12.8258 21.5922 13.7667 21.7327 14.9317 21.7327C15.5743 21.7327 16.2027 21.6841 16.8321 21.5986C17.4638 21.5067 18.0299 21.3452 18.5512 21.1161C19.0561 20.8881 19.4681 20.5671 19.785 20.1522C20.1074 19.7383 20.2669 19.202 20.2669 18.5337C20.2669 18.0555 20.1598 17.6553 19.9369 17.3323C19.6965 17.0061 19.3872 16.7421 18.9741 16.5236C18.5512 16.3082 18.0627 16.1161 17.4955 15.9577C16.9228 15.7993 16.3076 15.6367 15.6377 15.4731L12.8935 14.8576C11.8608 14.6274 10.8456 14.3783 9.87293 14.0996C8.9014 13.8272 8.04024 13.4271 7.29274 12.9161C6.54305 12.4009 5.94308 11.7188 5.47754 10.8795C5.01526 10.0529 4.7814 8.95066 4.7814 7.60141C4.7814 7.14322 4.8415 6.63223 4.93986 6.08641C5.05023 5.53636 5.23055 4.98209 5.49393 4.41727C5.75512 3.85561 6.11903 3.30556 6.57912 2.77135C7.04795 2.23291 7.64026 1.76416 8.37902 1.35453C9.1145 0.960734 9.98878 0.630284 11.0128 0.380071C12.0346 0.127746 13.2323 0 14.6093 0C16.5469 0 18.1665 0.276607 19.4528 0.825598C20.7369 1.3767 21.7499 2.0566 22.5149 2.85686C23.2755 3.65924 23.8045 4.52178 24.1159 5.45401C24.4164 6.37885 24.5727 7.22557 24.5727 7.97937H19.4528C19.4014 7.70804 19.3216 7.35437 19.2167 6.92784C19.1129 6.5066 18.8801 6.10013 18.5239 5.71056C18.1665 5.31782 17.6452 4.98209 16.9819 4.69704C16.3032 4.41093 15.3787 4.26418 14.2159 4.26418C13.7186 4.26418 13.2006 4.31908 12.6706 4.41727C12.1329 4.52178 11.6586 4.69387 11.2226 4.91875C10.7975 5.14679 10.4445 5.45401 10.1833 5.83092C9.89916 6.21099 9.76911 6.6713 9.76911 7.22557C9.76911 7.70804 9.85108 8.10184 10.0325 8.40801C10.2073 8.7184 10.4434 8.9665 10.709 9.1502C10.9898 9.33285 11.2794 9.46904 11.6018 9.56194C11.9198 9.65063 12.2171 9.73298 12.4717 9.80266L18.7031 11.2828C19.5752 11.4866 20.421 11.7389 21.2319 12.0366C22.0373 12.3365 22.7499 12.7355 23.3629 13.2402C23.987 13.7459 24.4776 14.3783 24.8361 15.1342C25.2153 15.8848 25.3945 16.8171 25.3945 17.9161C25.3945 19.1587 25.1989 20.2187 24.811 21.0981C24.4121 21.9797 23.9126 22.7219 23.2755 23.3163C22.6471 23.9138 21.9554 24.3889 21.1904 24.7426C20.4363 25.1047 19.6779 25.3687 18.9337 25.5534C18.1851 25.7371 17.4955 25.8533 16.8463 25.9145C16.207 25.9673 15.7076 26 15.3175 26C12.9941 26 11.1155 25.7139 9.68169 25.1417C8.24242 24.5631 7.12772 23.8674 6.34525 23.0238C5.56933 22.1908 5.04477 21.2882 4.7814 20.3274C4.52349 19.3593 4.39453 18.4999 4.39453 17.7451H9.52323Z" fill="white"/>
<path fill-rule="evenodd" clip-rule="evenodd" d="M50.3945 16.6832C50.3945 18.3202 50.1549 19.7212 49.6808 20.8934C49.2141 22.0666 48.5371 23.0351 47.6476 23.7894C46.7664 24.5478 45.6917 25.1078 44.436 25.463C43.1802 25.8161 41.7685 26 40.203 26C39.6306 26 39.0017 25.9561 38.3194 25.8767C37.6402 25.7952 36.9517 25.6354 36.2537 25.4139C35.5442 25.1799 34.8462 24.8686 34.1775 24.4914C33.4952 24.1164 32.882 23.6212 32.3294 22.9954C31.6639 22.2359 31.1773 21.3562 30.8916 20.3595C30.6049 19.3587 30.4353 18.2346 30.3945 16.9955V0H35.6823V16.655C35.6823 17.5242 35.7953 18.2722 36.0224 18.8917C36.2537 19.5112 36.5708 20.0252 36.9747 20.4264C37.3744 20.8276 37.8453 21.1253 38.3885 21.3238C38.9326 21.515 39.4956 21.6174 40.1026 21.6174C41.892 21.6174 43.1802 21.2079 43.9494 20.3888C44.7248 19.5708 45.1141 18.4111 45.1141 16.8942V0H50.3945V16.6832Z" fill="white"/>
<path fill-rule="evenodd" clip-rule="evenodd" d="M62.9755 26H57.3945V0H76.3945V4.52652H62.9755V10.7791H74.7212V15.1864H62.9755V26Z" fill="white"/>
<path fill-rule="evenodd" clip-rule="evenodd" d="M86.9755 26H81.3945V0H100.395V4.52652H86.9755V10.7791H98.7223V15.1864H86.9755V26Z" fill="white"/>
<path fill-rule="evenodd" clip-rule="evenodd" d="M108.396 26H102.395L108.387 0H114.395L108.396 26Z" fill="white"/>
<path fill-rule="evenodd" clip-rule="evenodd" d="M118.562 0H131.565V1.01385H126.371L132.439 11.3156L139.628 1.01385H135.024V0H144.892V1.01385H141.018L133.184 12.391L142.037 25.9872H146.395V27H133.069V25.9872H137.27L130.867 15.799L123.653 25.9872H128.466V27H118.395V25.9872H122.231L130.093 14.757L121.661 1.01385H118.562V0Z" fill="white"/>
</g>
<defs>
<filter id="filter0_d" x="0.394531" y="0" width="150" height="35" filterUnits="userSpaceOnUse" color-interpolation-filters="sRGB">
<feFlood flood-opacity="0" result="BackgroundImageFix"/>
<feColorMatrix in="SourceAlpha" type="matrix" values="0 0 0 0 0 0 0 0 0 0 0 0 0 0 0 0 0 0 127 0"/>
<feOffset dy="4"/>
<feGaussianBlur stdDeviation="2"/>
<feColorMatrix type="matrix" values="0 0 0 0 0 0 0 0 0 0 0 0 0 0 0 0 0 0 0.25 0"/>
<feBlend mode="normal" in2="BackgroundImageFix" result="effect1_dropShadow"/>
<feBlend mode="normal" in="SourceGraphic" in2="effect1_dropShadow" result="shape"/>
</filter>
</defs>
</svg>
